<?xml version="1.0" encoding="iso-8859-1"?>
<!-- Uploaded to: SVG Repo, www.svgrepo.com, Generator: SVG Repo Mixer Tools -->
<svg height="800px" width="800px" version="1.1" id="Layer_1" xmlns="http://www.w3.org/2000/svg" xmlns:xlink="http://www.w3.org/1999/xlink" 
	 viewBox="0 0 512.001 512.001" xml:space="preserve">
<path style="fill:#4CF5CB;" d="M258.637,8.192v495.616C394.295,502.403,503.83,391.985,503.83,256S394.295,9.597,258.637,8.192z"/>
<path style="fill:#D1FDF2;" d="M258.637,8.192C370.231,9.902,460.256,120.2,460.256,256s-90.025,246.098-201.619,247.808
	c-0.871,0.011-1.754,0.022-2.636,0.022c-24.38,0-47.943-3.53-70.198-10.087c-22.256-6.569-43.204-16.166-62.377-28.334L8.171,503.83
	l38.422-115.254C22.267,350.241,8.171,304.771,8.171,256c0-136.867,110.962-247.83,247.83-247.83
	C256.883,8.17,257.765,8.181,258.637,8.192z"/>
<path style="fill:#68AEF4;" d="M426.802,239.66l-42.932-98.043c-24.532-27.419-57.747-46.897-95.33-54.109
	c0,0-0.054,336.438,0,336.972C367.736,409.284,427.575,339.63,427.575,256C427.575,250.488,427.314,245.03,426.802,239.66z"/>
<path style="fill:#7CC8EF;" d="M359.523,141.617c-18.541-25.6-43.215-44.272-71.179-52.518l-64.882-1.58
	c-23.988,4.597-46.2,14.194-65.503,27.67L86.583,228.766c-1.427,8.867-2.157,17.964-2.157,27.234c0,8.443,0.61,16.754,1.797,24.87
	l44.457,92.302c24.26,25.949,56.483,44.348,92.781,51.32c0-0.011,64.882-1.59,64.882-1.59
	c61.113-18.007,106.55-85.907,106.55-166.901L359.523,141.617z"/>
<path style="fill:#276AAD;" d="M383.881,141.606c-0.011,0.011-24.358,0.011-24.358,0.011L394.894,256h15.567
	c9.031,0,16.34-7.321,16.34-16.34C423.261,202.153,407.64,168.154,383.881,141.606z"/>
<g>
	<path style="fill:#3891E9;" d="M394.894,256h-29.957v-27.234h-32.681h-76.255v-32.681h32.681c0-9.02,7.321-16.34,16.34-16.34
		h10.894v-38.128h43.607C381.517,171.978,394.894,212.055,394.894,256z"/>
	<path style="fill:#3891E9;" d="M315.915,261.447v103.489h-38.128c-11.983,0-21.787-9.804-21.787-21.787v-38.128h-10.894
		c-12.037,0-21.787-9.75-21.787-21.787c0-12.037,9.75-21.787,21.787-21.787H315.915z"/>
</g>
<g>
	<path style="fill:#F0EBEA;" d="M288.344,422.901l-30.546,4.662c10.501-0.109,20.774-1.155,30.742-3.072
		C288.485,423.947,288.431,423.424,288.344,422.901z"/>
	<path style="fill:#F0EBEA;" d="M257.798,84.436l30.546,4.662c0.087-0.523,0.142-1.046,0.196-1.58
		C278.572,85.591,268.299,84.545,257.798,84.436z"/>
</g>
<g>
	<path style="fill:#FFFFFF;" d="M288.344,89.099c-2.255,15.828-15.883,28.007-32.343,28.007c-17.005,0-30.981-12.996-32.539-29.587
		c10.534-2.037,21.417-3.094,32.539-3.094c0.599,0,1.198,0,1.797,0.011C268.299,84.6,278.529,86.212,288.344,89.099z"/>
	<path style="fill:#FFFFFF;" d="M256.001,394.894c16.46,0,30.088,12.179,32.343,28.007c-9.815,2.887-20.044,4.499-30.546,4.662
		c-0.599,0.011-1.198,0.011-1.797,0.011c-11.122,0-22.005-1.057-32.539-3.083C225.019,407.89,238.996,394.894,256.001,394.894z"/>
</g>
<g>
	<path style="fill:#3891E9;" d="M103.49,272.34c-7.017,0-13.239,3.331-17.224,8.483c-0.014,0.017-0.028,0.029-0.042,0.047
		c5.142,35.437,21.112,67.355,44.457,92.302c0.001-0.001,24.323-29.543,24.323-29.543c7.617-9.251,13.848-26.624,13.848-38.607
		V272.34H103.49z"/>
	<path style="fill:#3891E9;" d="M157.958,115.189v113.577H86.583C94.056,181.836,120.571,141.258,157.958,115.189z"/>
</g>
<path d="M256.001,435.745c99.111,0,179.745-80.633,179.745-179.745S355.113,76.255,256.001,76.255S76.256,156.889,76.256,256
	S156.889,435.745,256.001,435.745z M94.933,283.558c2.4-1.961,5.391-3.047,8.558-3.047h57.191v24.511
	c0,10.045-5.602,25.659-11.985,33.414l-18.191,22.094C112.443,338.881,99.87,312.506,94.933,283.558z M233.494,417.848
	c3.759-8.781,12.421-14.784,22.506-14.784s18.748,6.002,22.506,14.784c-7.36,1.019-14.871,1.557-22.506,1.557
	C248.365,419.404,240.854,418.866,233.494,417.848z M294.805,414.736c-5.375-16.462-20.734-28.013-38.804-28.013
	c-18.069,0-33.428,11.551-38.804,28.013c-28.94-7.075-54.878-21.877-75.5-42.09l19.616-23.825c8.81-10.701,15.711-29.94,15.711-43.8
	V272.34c0-4.512-3.657-8.17-8.17-8.17H103.49c-3.68,0-7.246,0.67-10.572,1.924c-0.205-3.34-0.321-6.703-0.321-10.094
	c0-6.449,0.388-12.808,1.118-19.064h56.074v2.723c0,4.512,3.657,8.17,8.17,8.17s8.17-3.658,8.17-8.17V119.602
	c15.406-10.184,32.627-17.83,51.068-22.338c5.377,16.464,20.736,28.013,38.804,28.013c18.07,0,33.429-11.55,38.804-28.013
	c26.042,6.367,49.654,18.99,69.15,36.183h-64.38c-4.513,0-8.17,3.658-8.17,8.17s3.657,8.17,8.17,8.17h8.17v21.787h-2.723
	c-10.652,0-19.738,6.83-23.111,16.34h-25.91c-4.513,0-8.17,3.658-8.17,8.17v24.511h-13.617c-4.513,0-8.17,3.658-8.17,8.17
	c0,4.512,3.657,8.17,8.17,8.17h89.872v16.34h-78.979c-16.518,0-29.957,13.438-29.957,29.957s13.439,29.957,29.957,29.957h2.723
	v29.957c0,16.519,13.439,29.957,29.957,29.957h38.128c4.513,0,8.17-3.658,8.17-8.17v-35.404c0-4.512-3.657-8.17-8.17-8.17
	c-4.513,0-8.17,3.658-8.17,8.17v27.234h-29.957c-7.509,0-13.617-6.108-13.617-13.617v-38.128c0-4.512-3.657-8.17-8.17-8.17h-10.894
	c-7.509,0-13.617-6.108-13.617-13.617s6.108-13.617,13.617-13.617h62.638v27.234c0,4.512,3.657,8.17,8.17,8.17
	c4.513,0,8.17-3.658,8.17-8.17v-27.234h8.17c4.513,0,8.17-3.658,8.17-8.17v-24.511h16.34v46.298c0,4.512,3.657,8.17,8.17,8.17
	c4.513,0,8.17-3.658,8.17-8.17V264.17h37.36c3.1,0,6.063-0.587,8.797-1.642C416.346,336.373,364.198,397.771,294.805,414.736z
	 M364.937,220.596H264.171v-16.34h24.511c4.513,0,8.17-3.658,8.17-8.17c0-4.506,3.665-8.17,8.17-8.17h10.894
	c4.513,0,8.17-3.658,8.17-8.17v-29.957h55.986c21.239,24.774,35.203,55.955,38.548,90.206c-0.176,4.35-3.76,7.837-8.153,7.837
	h-37.36v-19.064C373.107,224.254,369.45,220.596,364.937,220.596z M278.507,94.154c-3.758,8.781-12.42,14.783-22.506,14.783
	c-10.085,0-18.747-6.002-22.506-14.784c7.36-1.017,14.871-1.557,22.506-1.557C263.636,92.596,271.147,93.135,278.507,94.154z
	 M149.788,131.929v88.666H96.471C104.26,185.475,123.379,154.57,149.788,131.929z"/>
<path d="M348.596,321.362c-4.513,0-8.17,3.658-8.17,8.17v10.894c0,4.512,3.657,8.17,8.17,8.17c4.513,0,8.17-3.658,8.17-8.17v-10.894
	C356.766,325.02,353.109,321.362,348.596,321.362z"/>
<path d="M234.213,171.574c4.513,0,8.17-3.658,8.17-8.17v-10.894c0-4.512-3.657-8.17-8.17-8.17s-8.17,3.658-8.17,8.17v10.894
	C226.043,167.916,229.701,171.574,234.213,171.574z"/>
<path d="M437.02,74.981C388.668,26.629,324.381,0,256.001,0C193.889,0,133.983,22.533,87.316,63.449
	c-3.392,2.974-3.732,8.136-0.757,11.529c2.976,3.392,8.136,3.732,11.53,0.757c43.684-38.301,99.765-59.394,157.912-59.394
	c132.149,0,239.66,107.51,239.66,239.66s-107.51,239.66-239.66,239.66c-45.563,0-89.893-12.846-128.198-37.146
	c-2.072-1.315-4.631-1.63-6.961-0.852l-99.753,33.251l33.251-99.752c0.777-2.33,0.464-4.886-0.852-6.96
	C29.186,345.894,16.341,301.563,16.341,256c0-58.145,21.093-114.226,59.394-157.913c2.974-3.393,2.635-8.555-0.757-11.53
	c-3.394-2.975-8.556-2.635-11.53,0.757C22.534,133.983,0.001,193.89,0.001,256c0,47.361,12.995,93.478,37.622,133.639L0.42,501.247
	c-0.978,2.936-0.215,6.172,1.974,8.361c1.558,1.558,3.646,2.393,5.779,2.393c0.864,0,1.736-0.137,2.583-0.419l111.608-37.202
	C162.523,499.005,208.641,512,256.001,512c68.38,0,132.667-26.628,181.019-74.981S512,324.38,512,256S485.372,123.333,437.02,74.981
	z"/>
</svg>